<?xml version="1.0" encoding="UTF-8"?>
<svg width="64px" height="64px" viewBox="0 0 64 64" version="1.1" xmlns="http://www.w3.org/2000/svg" xmlns:xlink="http://www.w3.org/1999/xlink">
    <title>Automotive Icon</title>
    <g stroke="none" stroke-width="1" fill="none" fill-rule="evenodd">
        <path d="M60,36 C60,37.1 59.1,38 58,38 L56,38 L56,46 C56,48.2 54.2,50 52,50 L48,50 C45.8,50 44,48.2 44,46 L44,38 L20,38 L20,46 C20,48.2 18.2,50 16,50 L12,50 C9.8,50 8,48.2 8,46 L8,38 L6,38 C4.9,38 4,37.1 4,36 L4,26 C4,19.4 9.4,14 16,14 L48,14 C54.6,14 60,19.4 60,26 L60,36 Z M16,30 C18.2,30 20,28.2 20,26 C20,23.8 18.2,22 16,22 C13.8,22 12,23.8 12,26 C12,28.2 13.8,30 16,30 Z M48,30 C50.2,30 52,28.2 52,26 C52,23.8 50.2,22 48,22 C45.8,22 44,23.8 44,26 C44,28.2 45.8,30 48,30 Z" fill="currentColor" fill-rule="nonzero"></path>
    </g>
</svg>