<?xml version="1.0" encoding="UTF-8"?>
<svg width="64px" height="64px" viewBox="0 0 64 64" version="1.1" xmlns="http://www.w3.org/2000/svg" xmlns:xlink="http://www.w3.org/1999/xlink">
    <title>Certified Icon</title>
    <g stroke="none" stroke-width="1" fill="none" fill-rule="evenodd">
        <path d="M50,18 L14,18 C12.9,18 12,18.9 12,20 L12,44 C12,45.1 12.9,46 14,46 L50,46 C51.1,46 52,45.1 52,44 L52,20 C52,18.9 51.1,18 50,18 Z M24,36 L20,40 L16,36 L20,32 L24,36 Z M32,40 C29.8,40 28,38.2 28,36 C28,33.8 29.8,32 32,32 C34.2,32 36,33.8 36,36 C36,38.2 34.2,40 32,40 Z M44,36 L40,40 L36,36 L40,32 L44,36 Z" fill="currentColor" fill-rule="nonzero"></path>
    </g>
</svg>