<?xml version="1.0" encoding="UTF-8"?>
<svg width="64px" height="64px" viewBox="0 0 64 64" version="1.1" xmlns="http://www.w3.org/2000/svg" xmlns:xlink="http://www.w3.org/1999/xlink">
    <title>Commercial Icon</title>
    <g stroke="none" stroke-width="1" fill="none" fill-rule="evenodd">
        <path d="M56,12 L8,12 C6.9,12 6,12.9 6,14 L6,50 C6,51.1 6.9,52 8,52 L56,52 C57.1,52 58,51.1 58,50 L58,14 C58,12.9 57.1,12 56,12 Z M26,46 L14,46 L14,34 L26,34 L26,46 Z M26,30 L14,30 L14,18 L26,18 L26,30 Z M42,46 L30,46 L30,34 L42,34 L42,46 Z M42,30 L30,30 L30,18 L42,18 L42,30 Z M50,46 L46,46 L46,18 L50,18 L50,46 Z" fill="currentColor" fill-rule="nonzero"></path>
    </g>
</svg>