<svg width="853" height="348" viewBox="0 0 853 348" fill="none" xmlns="http://www.w3.org/2000/svg">
<path d="M592 56.4976C619.338 56.4976 641.5 78.6595 641.5 105.998C641.5 109.95 641.035 113.793 640.16 117.478C605.12 115.898 571.596 116.15 543.675 116.766C542.906 113.299 542.5 109.696 542.5 105.998C542.5 78.6595 564.662 56.4976 592 56.4976Z" fill="#CF232D"/>
<path fill-rule="evenodd" clip-rule="evenodd" d="M537.59 104.755C539.228 76.1271 562.962 53.4175 592 53.4175C622.1 53.4175 646.5 77.818 646.5 107.917C646.5 111.001 646.243 114.024 645.751 116.968L661 114.998C661 114.998 659 111.498 652 106.498C661 106.998 675 104.998 681 89C676.5 93.4976 671.5 94.9951 667.5 92.9976C666.305 92.4007 665.065 91.2231 663.607 89.8384C660.186 86.5889 655.564 82.1988 647.5 81.4975C660 74.4975 678 55.4975 670 33.9975C670 39.9975 665.5 46.9974 657 48.9975C654.14 49.6704 650.998 49.1549 647.458 48.5742C640.476 47.4288 631.949 46.03 621 52.9975C625.5 45.4975 632 27.9975 621 14.9975C621.07 15.7685 621.153 16.4958 621.233 17.1923C621.72 21.4653 622.076 24.5805 618.5 29.4975C616.898 31.7 614.414 32.5394 611.498 33.525C607.132 35.0006 601.796 36.8038 597 43.9998C596.024 41.6814 595.673 38.4999 595.272 34.862C594.029 23.5899 592.302 7.93626 570 9.67486e-07C570 -0.00331055 577.53 8.49509 576 14.9975C574.256 22.4102 570.895 26.5911 567.867 30.3586C563.951 35.2314 560.59 39.4127 562 49C560.11 48.5275 558.666 46.6159 556.903 44.2813C553.07 39.2054 547.727 32.13 533 33.4998C533 33.4998 538.5 35 541.5 42C542.638 44.6558 541.977 47.5276 541.21 50.8611C539.954 56.3136 538.415 63.0014 544 72C539.744 71.0972 535.92 69.396 532.134 67.7115C521.243 62.8657 510.664 58.1589 491 73C491 73 499.324 70.049 509 76.5C512.5 78.8333 517.5 88.5 519 97.5L537.59 104.755Z" fill="#CF232D"/>
<path fill-rule="evenodd" clip-rule="evenodd" d="M596.5 110.5L600 113.5C600 113.5 583.5 133.5 578 133.5C578 133.5 575 133.5 572 132C566.639 129.319 565.674 125.201 565.519 118.222C572.846 120.15 581.335 120.357 587.906 117.038C580.651 120.703 572.443 119.25 565.494 116.252C565.488 115.261 565.492 114.219 565.495 113.121C565.498 112.384 565.5 111.622 565.5 110.833C574.123 114.596 587.221 117.54 596.5 110.5Z" fill="white"/>
<path d="M560 108C567.333 112.5 584.9 119.3 596.5 110.5M596.5 110.5L600 113.5M596.5 110.5L595.625 109.75L594.75 109M600 113.5C600 113.5 583 134 577.5 133.5M600 113.5L600.875 114.25L601.75 115" stroke="black"/>
<path d="M371.811 196.627C372.424 194.48 374.386 193 376.619 193H842.373C845.694 193 848.092 196.179 847.18 199.373L835.189 241.373C834.576 243.52 832.614 245 830.381 245H364.627C361.306 245 358.908 241.821 359.819 238.627L371.811 196.627Z" fill="#CF232D"/>
<path d="M458.191 198.64C457.925 197.787 456.765 197.787 456.499 198.64L452.72 210.749H456.752C457.243 210.749 457.642 211.164 457.642 211.675C457.642 212.187 457.243 212.601 456.752 212.601H426.791C426.63 212.605 426.5 212.742 426.5 212.91C426.5 213.081 426.633 213.219 426.797 213.219H437.233C437.14 213.528 437.196 213.886 437.446 214.145H450.82C451.312 214.145 451.71 214.56 451.71 215.071C451.71 215.583 451.312 215.998 450.82 215.998H430.053C429.892 216.001 429.762 216.138 429.762 216.306C429.762 216.477 429.895 216.615 430.059 216.615H440.693L447.632 221.864H430.652C430.488 221.864 430.356 222.002 430.356 222.173C430.356 222.343 430.488 222.481 430.652 222.481H448.448C448.716 222.702 448.838 223.063 448.764 223.408H457.938C458.43 223.408 458.828 223.822 458.828 224.334C458.828 224.845 458.43 225.26 457.938 225.26H434.508C434.344 225.26 434.211 225.398 434.211 225.569C434.211 225.739 434.344 225.878 434.508 225.878H447.998L447.708 226.804H451.117C451.608 226.804 452.007 227.219 452.007 227.73C452.007 228.242 451.608 228.656 451.117 228.656H437.474C437.31 228.656 437.177 228.795 437.177 228.965C437.177 229.136 437.31 229.274 437.474 229.274H446.938L444.594 236.783C444.327 237.637 445.266 238.346 445.963 237.819L456.822 229.606C457.134 229.37 457.556 229.37 457.868 229.606L468.728 237.819C469.425 238.346 470.363 237.637 470.097 236.783L465.949 223.494C465.83 223.112 465.96 222.694 466.272 222.458L477.132 214.245C477.829 213.718 477.47 212.569 476.609 212.569H463.186C462.8 212.569 462.459 212.311 462.339 211.929L458.191 198.64Z" fill="white"/>
<path d="M541.191 198.64C540.925 197.787 539.765 197.787 539.499 198.64L535.72 210.749H539.752C540.243 210.749 540.642 211.164 540.642 211.675C540.642 212.187 540.243 212.601 539.752 212.601H509.791C509.63 212.605 509.5 212.742 509.5 212.91C509.5 213.081 509.633 213.219 509.797 213.219H520.233C520.14 213.528 520.196 213.886 520.446 214.145H533.82C534.312 214.145 534.71 214.56 534.71 215.071C534.71 215.583 534.312 215.998 533.82 215.998H513.053C512.892 216.001 512.762 216.138 512.762 216.306C512.762 216.477 512.895 216.615 513.059 216.615H523.693L530.632 221.864H513.652C513.488 221.864 513.356 222.002 513.356 222.173C513.356 222.343 513.488 222.481 513.652 222.481H531.448C531.716 222.702 531.838 223.063 531.764 223.408H540.938C541.43 223.408 541.828 223.822 541.828 224.334C541.828 224.845 541.43 225.26 540.938 225.26H517.508C517.344 225.26 517.211 225.398 517.211 225.569C517.211 225.739 517.344 225.878 517.508 225.878H530.998L530.708 226.804H534.117C534.608 226.804 535.007 227.219 535.007 227.73C535.007 228.242 534.608 228.656 534.117 228.656H520.474C520.31 228.656 520.177 228.795 520.177 228.965C520.177 229.136 520.31 229.274 520.474 229.274H529.938L527.594 236.783C527.327 237.637 528.266 238.346 528.963 237.819L539.822 229.606C540.134 229.37 540.556 229.37 540.868 229.606L551.728 237.819C552.425 238.346 553.363 237.637 553.097 236.783L548.949 223.494C548.83 223.112 548.96 222.694 549.272 222.458L560.132 214.245C560.829 213.718 560.47 212.569 559.609 212.569H546.186C545.8 212.569 545.459 212.311 545.339 211.929L541.191 198.64Z" fill="white"/>
<path d="M624.191 198.64C623.925 197.787 622.765 197.787 622.499 198.64L618.72 210.749H622.752C623.243 210.749 623.642 211.164 623.642 211.675C623.642 212.187 623.243 212.601 622.752 212.601H592.791C592.63 212.605 592.5 212.742 592.5 212.91C592.5 213.081 592.633 213.219 592.797 213.219H603.233C603.14 213.528 603.196 213.886 603.446 214.145H616.82C617.312 214.145 617.71 214.56 617.71 215.071C617.71 215.583 617.312 215.998 616.82 215.998H596.053C595.892 216.001 595.762 216.138 595.762 216.306C595.762 216.477 595.895 216.615 596.059 216.615H606.693L613.632 221.864H596.652C596.488 221.864 596.356 222.002 596.356 222.173C596.356 222.343 596.488 222.481 596.652 222.481H614.448C614.716 222.702 614.838 223.063 614.764 223.408H623.938C624.43 223.408 624.828 223.822 624.828 224.334C624.828 224.845 624.43 225.26 623.938 225.26H600.508C600.344 225.26 600.211 225.398 600.211 225.569C600.211 225.739 600.344 225.878 600.508 225.878H613.998L613.708 226.804H617.117C617.608 226.804 618.007 227.219 618.007 227.73C618.007 228.242 617.608 228.656 617.117 228.656H603.474C603.31 228.656 603.177 228.795 603.177 228.965C603.177 229.136 603.31 229.274 603.474 229.274H612.938L610.594 236.783C610.327 237.637 611.266 238.346 611.963 237.819L622.822 229.606C623.134 229.37 623.556 229.37 623.868 229.606L634.728 237.819C635.425 238.346 636.363 237.637 636.097 236.783L631.949 223.494C631.83 223.112 631.96 222.694 632.272 222.458L643.132 214.245C643.829 213.718 643.47 212.569 642.609 212.569H629.186C628.8 212.569 628.459 212.311 628.339 211.929L624.191 198.64Z" fill="white"/>
<path d="M707.191 198.64C706.925 197.787 705.765 197.787 705.499 198.64L701.72 210.749H705.752C706.243 210.749 706.642 211.164 706.642 211.675C706.642 212.187 706.243 212.601 705.752 212.601H675.791C675.63 212.605 675.5 212.742 675.5 212.91C675.5 213.081 675.633 213.219 675.797 213.219H686.233C686.14 213.528 686.196 213.886 686.446 214.145H699.82C700.312 214.145 700.71 214.56 700.71 215.071C700.71 215.583 700.312 215.998 699.82 215.998H679.053C678.892 216.001 678.762 216.138 678.762 216.306C678.762 216.477 678.895 216.615 679.059 216.615H689.693L696.632 221.864H679.652C679.488 221.864 679.356 222.002 679.356 222.173C679.356 222.343 679.488 222.481 679.652 222.481H697.448C697.716 222.702 697.838 223.063 697.764 223.408H706.938C707.43 223.408 707.828 223.822 707.828 224.334C707.828 224.845 707.43 225.26 706.938 225.26H683.508C683.344 225.26 683.211 225.398 683.211 225.569C683.211 225.739 683.344 225.878 683.508 225.878H696.998L696.708 226.804H700.117C700.608 226.804 701.007 227.219 701.007 227.73C701.007 228.242 700.608 228.656 700.117 228.656H686.474C686.31 228.656 686.177 228.795 686.177 228.965C686.177 229.136 686.31 229.274 686.474 229.274H695.938L693.594 236.783C693.327 237.637 694.266 238.346 694.963 237.819L705.822 229.606C706.134 229.37 706.556 229.37 706.868 229.606L717.728 237.819C718.425 238.346 719.363 237.637 719.097 236.783L714.949 223.494C714.83 223.112 714.96 222.694 715.272 222.458L726.132 214.245C726.829 213.718 726.47 212.569 725.609 212.569H712.186C711.8 212.569 711.459 212.311 711.339 211.929L707.191 198.64Z" fill="white"/>
<path d="M790.191 198.64C789.925 197.787 788.765 197.787 788.499 198.64L784.72 210.749H788.752C789.243 210.749 789.642 211.164 789.642 211.675C789.642 212.187 789.243 212.601 788.752 212.601H758.791C758.63 212.605 758.5 212.742 758.5 212.91C758.5 213.081 758.633 213.219 758.797 213.219H769.233C769.14 213.528 769.196 213.886 769.446 214.145H782.82C783.312 214.145 783.71 214.56 783.71 215.071C783.71 215.583 783.312 215.998 782.82 215.998H762.053C761.892 216.001 761.762 216.138 761.762 216.306C761.762 216.477 761.895 216.615 762.059 216.615H772.693L779.632 221.864H762.652C762.488 221.864 762.356 222.002 762.356 222.173C762.356 222.343 762.488 222.481 762.652 222.481H780.448C780.716 222.702 780.838 223.063 780.764 223.408H789.938C790.43 223.408 790.828 223.822 790.828 224.334C790.828 224.845 790.43 225.26 789.938 225.26H766.508C766.344 225.26 766.211 225.398 766.211 225.569C766.211 225.739 766.344 225.878 766.508 225.878H779.998L779.708 226.804H783.117C783.608 226.804 784.007 227.219 784.007 227.73C784.007 228.242 783.608 228.656 783.117 228.656H769.474C769.31 228.656 769.177 228.795 769.177 228.965C769.177 229.136 769.31 229.274 769.474 229.274H778.938L776.594 236.783C776.327 237.637 777.266 238.346 777.963 237.819L788.822 229.606C789.134 229.37 789.556 229.37 789.868 229.606L800.728 237.819C801.425 238.346 802.363 237.637 802.097 236.783L797.949 223.494C797.83 223.112 797.96 222.694 798.272 222.458L809.132 214.245C809.829 213.718 809.47 212.569 808.609 212.569H795.186C794.8 212.569 794.459 212.311 794.339 211.929L790.191 198.64Z" fill="white"/>
<path fill-rule="evenodd" clip-rule="evenodd" d="M12.5 134.159L44 113.159L35.5 106.159L31 102.16C31.357 102.201 31.7752 102.251 32.253 102.309C39.5816 103.199 60.9279 105.792 90.5 100.159C117.11 95.09 144.519 88.1639 172.434 81.1102C243.14 63.2433 317.088 44.5573 389.5 53.1603C427.985 57.7326 483.981 98.1238 513.815 119.644C515.275 120.697 516.671 121.704 518 122.66C609 120.159 781 118.659 850 184.16C853 187.008 852.811 194.727 850.5 192.159C846.091 187.26 845.042 187.161 774.906 180.573L770.5 180.159C758.5 160.659 743.5 151.159 741.5 155.659C740.482 157.949 742.564 159.96 745.939 163.221C750.268 167.403 756.724 173.641 761.5 185.16C761.158 185.16 760.609 185.161 759.868 185.164C743.883 163.049 717.872 148.659 688.5 148.659C657.655 148.659 630.517 164.528 614.804 188.547C614.196 188.584 613.594 188.622 613 188.659C616.25 176.841 625.366 166.803 631.703 159.826C636.09 154.996 639.145 151.632 638 150.159C634.5 145.659 615.5 164.159 609 172.659C452.5 166.159 306.5 164.159 242.5 171.159C228.5 156.159 212.462 147.159 210 151.16C209.096 152.63 212.432 155.116 217.258 158.712C224.376 164.014 234.733 171.731 239.5 182.16C239.16 182.16 238.741 182.162 238.248 182.166C222.13 164.062 198.646 152.659 172.5 152.659C144.953 152.659 120.362 165.317 104.226 185.133C103.332 185.15 102.745 185.159 102.5 185.159C106.343 178.675 110.993 172.767 114.622 168.156C118.548 163.168 121.279 159.698 120.5 158.659C117.669 154.886 102.5 169.159 93 182.16C72.1487 167.824 32.0493 169.34 15.0007 169.984C12.4263 170.082 10.3775 170.159 9 170.159C34 155.159 59.6 139.359 62 136.159C64.2321 133.183 47.9186 133.528 30.3594 133.9C24.3189 134.028 18.131 134.159 12.5 134.159Z" fill="#CF232D"/>
<g filter="url(#filter0_i_110_41)">
<path d="M159 114.659V109.659H201.5C197.167 105.492 179 90.1591 179 90.1591C232 70.6591 324 55.1591 378.5 58.1591C421.513 60.5268 475.199 99.0992 499.04 118.86C499.662 119.376 500 120.126 500 120.933C500 122.439 498.78 123.659 497.274 123.659H466.283C464.569 123.659 462.993 122.718 462.18 121.208L462.025 120.92C460.902 118.835 461.664 116.235 463.734 115.085C464.156 114.851 464.305 114.317 464.065 113.898L463.107 112.221C460.258 107.236 454.957 104.159 449.215 104.159H429.025C425.752 104.159 422.556 105.152 419.86 107.006C417.338 108.739 415.36 111.152 414.155 113.964L413 116.659H453L465.966 139.678C466.717 141.011 465.754 142.659 464.224 142.659H455.622C454.925 142.659 454.278 142.297 453.915 141.702L449 133.659C439.709 133.659 429.798 133.636 422.5 133.659C417.5 133.659 412.5 127.159 412.5 123.986C345.006 124.163 273.242 124.191 261 123.659C242.6 122.859 185.333 117.326 159 114.659Z" fill="#231F20"/>
</g>
<path d="M550.439 77.0502C554.091 78.1292 559.819 79.6978 565.126 80.8959C567.78 81.4952 570.315 81.9986 572.424 82.3021C574.582 82.6127 576.15 82.6906 576.96 82.5287L578.156 82.2894V83.5092C578.156 83.9814 578.139 84.4483 578.108 84.9095L580.075 86.4916C581.282 87.4626 582.872 87.8193 584.378 87.4574L587.387 86.7338C587.522 86.4513 587.663 86.1692 587.812 85.889L588.387 84.8129L589.329 85.5873C589.967 86.1116 591.387 86.782 593.437 87.5248C595.441 88.2506 597.913 89.0011 600.537 89.723C605.782 91.1662 611.574 92.4806 615.304 93.2494L615.843 93.3607L616.037 93.8754C616.079 93.9866 616.118 94.1075 616.157 94.2367L621.156 96.5092L619.656 100.509L616.219 99.6498C615.821 101.554 614.968 103.715 613.378 105.928L613.242 106.117L613.038 106.226C611.275 107.171 609.087 107.63 606.769 107.783C604.442 107.936 601.918 107.787 599.434 107.469C594.47 106.834 589.573 105.511 586.566 104.482L586.082 104.316L585.933 103.826C585.458 102.259 584.986 99.481 585.121 96.2103L582.187 94.4301C581.254 93.8639 580.162 93.6179 579.076 93.7308L575.56 94.0961C574.159 96.9377 572.492 99.0872 571.363 100.216L571.001 100.578L570.496 100.495C567.359 99.9868 562.417 98.847 557.738 97.0687C555.398 96.1792 553.101 95.1211 551.12 93.889C549.148 92.6624 547.434 91.2285 546.324 89.5638L546.195 89.3705L546.165 89.141C545.322 82.819 547.905 78.65 549.498 77.2562L549.912 76.8939L550.439 77.0502ZM589.087 87.8148C586.408 93.6054 586.969 99.8588 587.711 102.756C590.643 103.723 595.147 104.903 599.688 105.485C602.09 105.792 604.479 105.929 606.638 105.786C608.704 105.65 610.501 105.261 611.89 104.569C614.748 100.475 614.712 96.7654 614.316 95.0873C610.554 94.2998 605.037 93.0351 600.006 91.6508C597.358 90.9223 594.83 90.1568 592.757 89.4056C591.33 88.8886 590.047 88.3545 589.087 87.8148ZM550.444 79.1361C549.305 80.4299 547.525 83.685 548.118 88.642C549.016 89.9069 550.418 91.0966 552.177 92.1908C554.014 93.3337 556.185 94.3391 558.449 95.1996C562.729 96.8262 567.257 97.9063 570.299 98.4349C572.318 96.2286 575.76 90.9768 576.125 84.6068C575.023 84.6303 573.641 84.4979 572.139 84.2816C569.956 83.9674 567.364 83.4519 564.685 82.847C559.595 81.6978 554.134 80.2141 550.444 79.1361Z" fill="black"/>
<path d="M619.654 100.509L621.154 96.5087L628.86 101.806C629.055 101.94 629.225 102.107 629.362 102.299L630.499 103.891C630.982 104.568 630.498 105.509 629.666 105.509C629.344 105.509 629.041 105.357 628.847 105.099L628.208 104.246C627.846 103.765 627.355 103.396 626.791 103.185L619.654 100.509Z" fill="black"/>
<path d="M607 74.4999C601.157 73.7699 595.931 77.311 593.537 79.2738C593.142 79.5977 593.457 80.1631 593.953 80.0394C596.331 79.446 600.514 78.4999 603 78.4999C608.141 78.4999 612.018 81.201 613.714 82.6358C614.063 82.9304 614.6 82.6783 614.526 82.228C614.15 79.9146 612.687 75.2104 607 74.4999Z" fill="black"/>
<path d="M565.5 72.5C562.335 72.3842 558.06 73.8983 555.768 74.823C555.301 75.0112 555.4 75.648 555.901 75.696C557.343 75.8342 559.404 75.9999 561 75.9999C565.065 75.9999 570.063 77.7765 572.158 78.5987C572.555 78.7545 572.937 78.3893 572.761 78.0009C571.951 76.2138 569.804 72.6575 565.5 72.5Z" fill="black"/>
<path fill-rule="evenodd" clip-rule="evenodd" d="M550.444 79.1357C549.305 80.4294 547.525 83.6849 548.118 88.6423C549.016 89.9072 550.418 91.0968 552.177 92.191C554.014 93.3339 556.185 94.3386 558.449 95.1991C562.729 96.8259 567.257 97.9062 570.299 98.4348C572.319 96.2284 575.76 90.9771 576.125 84.6071C575.023 84.6306 573.641 84.4977 572.139 84.2814C569.956 83.9673 567.365 83.4516 564.686 82.8468C559.596 81.6975 554.134 80.2137 550.444 79.1357Z" fill="#565656"/>
<path fill-rule="evenodd" clip-rule="evenodd" d="M614.316 95.0876C614.712 96.7657 614.749 100.476 611.89 104.569C610.502 105.262 608.705 105.651 606.638 105.787C604.479 105.93 602.09 105.793 599.688 105.485C595.146 104.904 590.643 103.724 587.711 102.757C586.969 99.8592 586.408 93.6059 589.087 87.8153C590.048 88.355 591.329 88.8887 592.756 89.4058C594.83 90.1571 597.358 90.923 600.006 91.6515C605.038 93.0359 610.554 94.3002 614.316 95.0876Z" fill="#565656"/>
<path d="M17.92 224L15.75 245H5.95L11.06 196H41.09L40.18 204.4H19.95L18.83 215.6H34.86L33.95 224H17.92ZM43.6844 245L48.7944 196H58.5944L53.4844 245H43.6844ZM111.344 196L88.7343 245H77.9543L65.5643 196H75.5043L84.5343 233.03H84.6743L101.404 196H111.344ZM125.176 224L123.846 236.6H143.376L142.536 245H113.206L118.316 196H147.646L146.736 204.4H127.206L126.086 215.6H141.416L140.506 224H125.176ZM172.397 220.15L174.497 200.34L183.107 195.65H200.817L208.447 200.34L207.467 209.65H197.667L198.227 204.05H183.877L182.617 215.74H198.647L206.277 220.43L204.177 240.66L195.567 245.35H177.157L169.527 240.66L170.507 231.35H180.307L179.747 236.95H194.797L196.057 224.84H180.027L172.397 220.15ZM238.707 204.4L234.507 245H224.707L228.907 204.4H215.677L216.587 196H252.847L251.937 204.4H238.707ZM279.765 196L292.155 245H282.495L279.835 234.43H261.495L256.735 245H247.075L269.685 196H279.765ZM273.395 208.32L265.345 226.03H277.735L273.535 208.32H273.395ZM336.313 245H325.533L316.923 226.52H310.833L308.943 245H299.143L304.253 196H330.783L338.413 200.69L336.173 221.83L327.563 226.52L336.313 245ZM313.143 204.4L311.743 218.12H326.793L328.193 204.4H313.143Z" fill="white"/>
<path d="M96.768 263.8L72.672 331H58.272L50.88 285.592H50.688L33.888 331H19.488L9.408 263.8H22.464L28.992 309.88H29.184L46.272 263.8H59.904L67.392 309.688H67.584L83.712 263.8H96.768ZM100.316 331L107.324 263.8H120.764L113.756 331H100.316ZM147.987 287.512L143.475 331H130.035L137.043 263.8H149.619L174.003 307.288H174.195L178.803 263.8H192.243L185.235 331H172.659L148.179 287.512H147.987ZM254.558 324.568L242.75 331H201.566L208.574 263.8H249.758L260.222 270.232L254.558 324.568ZM220.766 275.32L216.158 319.48H241.598L246.206 275.32H220.766ZM323.087 325.048L311.279 331.48H281.231L270.767 325.048L276.623 269.752L288.431 263.32H318.479L328.943 269.752L323.087 325.048ZM289.487 274.84L284.783 319.96H310.223L314.927 274.84H289.487ZM427.424 263.8L403.328 331H388.928L381.536 285.592H381.344L364.544 331H350.144L340.064 263.8H353.12L359.648 309.88H359.84L376.928 263.8H390.56L398.048 309.688H398.24L414.368 263.8H427.424ZM487.494 275.32L481.734 331H468.294L474.054 275.32H455.91L457.158 263.8H506.886L505.638 275.32H487.494ZM510.473 331L517.481 263.8H530.921L523.913 331H510.473ZM558.143 287.512L553.631 331H540.191L547.199 263.8H559.775L584.159 307.288H584.351L588.959 263.8H602.399L595.391 331H582.815L558.335 287.512H558.143ZM643.307 275.32L637.547 331H624.107L629.867 275.32H611.723L612.971 263.8H662.699L661.451 275.32H643.307ZM666.285 331L673.293 263.8H686.733L679.725 331H666.285ZM713.956 287.512L709.444 331H696.004L703.012 263.8H715.588L739.972 307.288H740.164L744.772 263.8H758.212L751.204 331H738.628L714.148 287.512H713.956ZM793.935 307.48L795.183 295.96H819.663L816.591 325.048L804.783 331.48H777.615L767.151 325.048L773.007 269.752L784.815 263.32H811.983L822.447 269.752L821.007 283.48H807.567L808.431 274.84H785.871L781.167 319.96H803.727L804.975 307.48H793.935Z" fill="white"/>
<defs>
<filter id="filter0_i_110_41" x="159" y="57.7861" width="341" height="84.873" filterUnits="userSpaceOnUse" color-interpolation-filters="sRGB">
<feFlood flood-opacity="0" result="BackgroundImageFix"/>
<feBlend mode="normal" in="SourceGraphic" in2="BackgroundImageFix" result="shape"/>
<feColorMatrix in="SourceAlpha" type="matrix" values="0 0 0 0 0 0 0 0 0 0 0 0 0 0 0 0 0 0 127 0" result="hardAlpha"/>
<feOffset dy="7"/>
<feComposite in2="hardAlpha" operator="arithmetic" k2="-1" k3="1"/>
<feColorMatrix type="matrix" values="0 0 0 0 0 0 0 0 0 0 0 0 0 0 0 0 0 0 0.25 0"/>
<feBlend mode="normal" in2="shape" result="effect1_innerShadow_110_41"/>
</filter>
</defs>
</svg>
